<svg xmlns="http://www.w3.org/2000/svg" viewBox="0 0 1600 300" width="1600" height="300">
  <defs>
    <linearGradient id="grad-ribbon" x1="0%" y1="0%" x2="100%" y2="0%">
      <stop offset="0%" stop-color="#2E4A62"/>
      <stop offset="50%" stop-color="#58B09C"/>
      <stop offset="100%" stop-color="#D4A55D"/>
    </linearGradient>
  </defs>
  <path d="M 0 160.00 L 3 162.51 L 6 165.02 L 9 167.52 L 12 170.00 L 15 172.46 L 18 174.90 L 21 177.30 L 24 179.68 L 27 182.01 L 30 184.30 L 33 186.54 L 36 188.72 L 39 190.85 L 42 192.92 L 45 194.92 L 48 196.84 L 51 198.70 L 54 200.48 L 57 202.17 L 60 203.78 L 63 205.30 L 66 206.74 L 69 208.07 L 72 209.31 L 75 210.45 L 78 211.49 L 81 212.43 L 84 213.26 L 87 213.98 L 90 214.60 L 93 215.10 L 96 215.49 L 99 215.77 L 102 215.94 L 105 216.00 L 108 215.94 L 111 215.77 L 114 215.49 L 117 215.10 L 120 214.60 L 123 213.98 L 126 213.26 L 129 212.43 L 132 211.49 L 135 210.45 L 138 209.31 L 141 208.07 L 144 206.74 L 147 205.30 L 150 203.78 L 153 202.17 L 156 200.48 L 159 198.70 L 162 196.84 L 165 194.92 L 168 192.92 L 171 190.85 L 174 188.72 L 177 186.54 L 180 184.30 L 183 182.01 L 186 179.68 L 189 177.30 L 192 174.90 L 195 172.46 L 198 170.00 L 201 167.52 L 204 165.02 L 207 162.51 L 210 160.00 L 213 157.49 L 216 154.98 L 219 152.48 L 222 150.00 L 225 147.54 L 228 145.10 L 231 142.70 L 234 140.32 L 237 137.99 L 240 135.70 L 243 133.46 L 246 131.28 L 249 129.15 L 252 127.08 L 255 125.08 L 258 123.16 L 261 121.30 L 264 119.52 L 267 117.83 L 270 116.22 L 273 114.70 L 276 113.26 L 279 111.93 L 282 110.69 L 285 109.55 L 288 108.51 L 291 107.57 L 294 106.74 L 297 106.02 L 300 105.40 L 303 104.90 L 306 104.51 L 309 104.23 L 312 104.06 L 315 104.00 L 318 104.06 L 321 104.23 L 324 104.51 L 327 104.90 L 330 105.40 L 333 106.02 L 336 106.74 L 339 107.57 L 342 108.51 L 345 109.55 L 348 110.69 L 351 111.93 L 354 113.26 L 357 114.70 L 360 116.22 L 363 117.83 L 366 119.52 L 369 121.30 L 372 123.16 L 375 125.08 L 378 127.08 L 381 129.15 L 384 131.28 L 387 133.46 L 390 135.70 L 393 137.99 L 396 140.32 L 399 142.70 L 402 145.10 L 405 147.54 L 408 150.00 L 411 152.48 L 414 154.98 L 417 157.49 L 420 160.00 L 423 162.51 L 426 165.02 L 429 167.52 L 432 170.00 L 435 172.46 L 438 174.90 L 441 177.30 L 444 179.68 L 447 182.01 L 450 184.30 L 453 186.54 L 456 188.72 L 459 190.85 L 462 192.92 L 465 194.92 L 468 196.84 L 471 198.70 L 474 200.48 L 477 202.17 L 480 203.78 L 483 205.30 L 486 206.74 L 489 208.07 L 492 209.31 L 495 210.45 L 498 211.49 L 501 212.43 L 504 213.26 L 507 213.98 L 510 214.60 L 513 215.10 L 516 215.49 L 519 215.77 L 522 215.94 L 525 216.00 L 528 215.94 L 531 215.77 L 534 215.49 L 537 215.10 L 540 214.60 L 543 213.98 L 546 213.26 L 549 212.43 L 552 211.49 L 555 210.45 L 558 209.31 L 561 208.07 L 564 206.74 L 567 205.30 L 570 203.78 L 573 202.17 L 576 200.48 L 579 198.70 L 582 196.84 L 585 194.92 L 588 192.92 L 591 190.85 L 594 188.72 L 597 186.54 L 600 184.30 L 603 182.01 L 606 179.68 L 609 177.30 L 612 174.90 L 615 172.46 L 618 170.00 L 621 167.52 L 624 165.02 L 627 162.51 L 630 160.00 L 633 157.49 L 636 154.98 L 639 152.48 L 642 150.00 L 645 147.54 L 648 145.10 L 651 142.70 L 654 140.32 L 657 137.99 L 660 135.70 L 663 133.46 L 666 131.28 L 669 129.15 L 672 127.08 L 675 125.08 L 678 123.16 L 681 121.30 L 684 119.52 L 687 117.83 L 690 116.22 L 693 114.70 L 696 113.26 L 699 111.93 L 702 110.69 L 705 109.55 L 708 108.51 L 711 107.57 L 714 106.74 L 717 106.02 L 720 105.40 L 723 104.90 L 726 104.51 L 729 104.23 L 732 104.06 L 735 104.00 L 738 104.06 L 741 104.23 L 744 104.51 L 747 104.90 L 750 105.40 L 753 106.02 L 756 106.74 L 759 107.57 L 762 108.51 L 765 109.55 L 768 110.69 L 771 111.93 L 774 113.26 L 777 114.70 L 780 116.22 L 783 117.83 L 786 119.52 L 789 121.30 L 792 123.16 L 795 125.08 L 798 127.08 L 801 129.15 L 804 131.28 L 807 133.46 L 810 135.70 L 813 137.99 L 816 140.32 L 819 142.70 L 822 145.10 L 825 147.54 L 828 150.00 L 831 152.48 L 834 154.98 L 837 157.49 L 840 160.00 L 843 162.51 L 846 165.02 L 849 167.52 L 852 170.00 L 855 172.46 L 858 174.90 L 861 177.30 L 864 179.68 L 867 182.01 L 870 184.30 L 873 186.54 L 876 188.72 L 879 190.85 L 882 192.92 L 885 194.92 L 888 196.84 L 891 198.70 L 894 200.48 L 897 202.17 L 900 203.78 L 903 205.30 L 906 206.74 L 909 208.07 L 912 209.31 L 915 210.45 L 918 211.49 L 921 212.43 L 924 213.26 L 927 213.98 L 930 214.60 L 933 215.10 L 936 215.49 L 939 215.77 L 942 215.94 L 945 216.00 L 948 215.94 L 951 215.77 L 954 215.49 L 957 215.10 L 960 214.60 L 963 213.98 L 966 213.26 L 969 212.43 L 972 211.49 L 975 210.45 L 978 209.31 L 981 208.07 L 984 206.74 L 987 205.30 L 990 203.78 L 993 202.17 L 996 200.48 L 999 198.70 L 1002 196.84 L 1005 194.92 L 1008 192.92 L 1011 190.85 L 1014 188.72 L 1017 186.54 L 1020 184.30 L 1023 182.01 L 1026 179.68 L 1029 177.30 L 1032 174.90 L 1035 172.46 L 1038 170.00 L 1041 167.52 L 1044 165.02 L 1047 162.51 L 1050 160.00 L 1053 157.49 L 1056 154.98 L 1059 152.48 L 1062 150.00 L 1065 147.54 L 1068 145.10 L 1071 142.70 L 1074 140.32 L 1077 137.99 L 1080 135.70 L 1083 133.46 L 1086 131.28 L 1089 129.15 L 1092 127.08 L 1095 125.08 L 1098 123.16 L 1101 121.30 L 1104 119.52 L 1107 117.83 L 1110 116.22 L 1113 114.70 L 1116 113.26 L 1119 111.93 L 1122 110.69 L 1125 109.55 L 1128 108.51 L 1131 107.57 L 1134 106.74 L 1137 106.02 L 1140 105.40 L 1143 104.90 L 1146 104.51 L 1149 104.23 L 1152 104.06 L 1155 104.00 L 1158 104.06 L 1161 104.23 L 1164 104.51 L 1167 104.90 L 1170 105.40 L 1173 106.02 L 1176 106.74 L 1179 107.57 L 1182 108.51 L 1185 109.55 L 1188 110.69 L 1191 111.93 L 1194 113.26 L 1197 114.70 L 1200 116.22 L 1203 117.83 L 1206 119.52 L 1209 121.30 L 1212 123.16 L 1215 125.08 L 1218 127.08 L 1221 129.15 L 1224 131.28 L 1227 133.46 L 1230 135.70 L 1233 137.99 L 1236 140.32 L 1239 142.70 L 1242 145.10 L 1245 147.54 L 1248 150.00 L 1251 152.48 L 1254 154.98 L 1257 157.49 L 1260 160.00 L 1263 162.51 L 1266 165.02 L 1269 167.52 L 1272 170.00 L 1275 172.46 L 1278 174.90 L 1281 177.30 L 1284 179.68 L 1287 182.01 L 1290 184.30 L 1293 186.54 L 1296 188.72 L 1299 190.85 L 1302 192.92 L 1305 194.92 L 1308 196.84 L 1311 198.70 L 1314 200.48 L 1317 202.17 L 1320 203.78 L 1323 205.30 L 1326 206.74 L 1329 208.07 L 1332 209.31 L 1335 210.45 L 1338 211.49 L 1341 212.43 L 1344 213.26 L 1347 213.98 L 1350 214.60 L 1353 215.10 L 1356 215.49 L 1359 215.77 L 1362 215.94 L 1365 216.00 L 1368 215.94 L 1371 215.77 L 1374 215.49 L 1377 215.10 L 1380 214.60 L 1383 213.98 L 1386 213.26 L 1389 212.43 L 1392 211.49 L 1395 210.45 L 1398 209.31 L 1401 208.07 L 1404 206.74 L 1407 205.30 L 1410 203.78 L 1413 202.17 L 1416 200.48 L 1419 198.70 L 1422 196.84 L 1425 194.92 L 1428 192.92 L 1431 190.85 L 1434 188.72 L 1437 186.54 L 1440 184.30 L 1443 182.01 L 1446 179.68 L 1449 177.30 L 1452 174.90 L 1455 172.46 L 1458 170.00 L 1461 167.52 L 1464 165.02 L 1467 162.51 L 1470 160.00 L 1473 157.49 L 1476 154.98 L 1479 152.48 L 1482 150.00 L 1485 147.54 L 1488 145.10 L 1491 142.70 L 1494 140.32 L 1497 137.99 L 1500 135.70 L 1503 133.46 L 1506 131.28 L 1509 129.15 L 1512 127.08 L 1515 125.08 L 1518 123.16 L 1521 121.30 L 1524 119.52 L 1527 117.83 L 1530 116.22 L 1533 114.70 L 1536 113.26 L 1539 111.93 L 1542 110.69 L 1545 109.55 L 1548 108.51 L 1551 107.57 L 1554 106.74 L 1557 106.02 L 1560 105.40 L 1563 104.90 L 1566 104.51 L 1569 104.23 L 1572 104.06 L 1575 104.00 L 1578 104.06 L 1581 104.23 L 1584 104.51 L 1587 104.90 L 1590 105.40 L 1593 106.02 L 1596 106.74 L 1599 107.57 L 1602 108.51 L 1602 167.38 L 1599 166.68 L 1596 166.06 L 1593 165.51 L 1590 165.05 L 1587 164.67 L 1584 164.38 L 1581 164.17 L 1578 164.04 L 1575 164.00 L 1572 164.04 L 1569 164.17 L 1566 164.38 L 1563 164.67 L 1560 165.05 L 1557 165.51 L 1554 166.06 L 1551 166.68 L 1548 167.38 L 1545 168.16 L 1542 169.01 L 1539 169.95 L 1536 170.95 L 1533 172.02 L 1530 173.16 L 1527 174.37 L 1524 175.64 L 1521 176.98 L 1518 178.37 L 1515 179.81 L 1512 181.31 L 1509 182.86 L 1506 184.46 L 1503 186.10 L 1500 187.78 L 1497 189.49 L 1494 191.24 L 1491 193.02 L 1488 194.83 L 1485 196.65 L 1482 198.50 L 1479 200.36 L 1476 202.24 L 1473 204.12 L 1470 206.00 L 1467 207.88 L 1464 209.76 L 1461 211.64 L 1458 213.50 L 1455 215.35 L 1452 217.17 L 1449 218.98 L 1446 220.76 L 1443 222.51 L 1440 224.22 L 1437 225.90 L 1434 227.54 L 1431 229.14 L 1428 230.69 L 1425 232.19 L 1422 233.63 L 1419 235.02 L 1416 236.36 L 1413 237.63 L 1410 238.84 L 1407 239.98 L 1404 241.05 L 1401 242.05 L 1398 242.99 L 1395 243.84 L 1392 244.62 L 1389 245.32 L 1386 245.94 L 1383 246.49 L 1380 246.95 L 1377 247.33 L 1374 247.62 L 1371 247.83 L 1368 247.96 L 1365 248.00 L 1362 247.96 L 1359 247.83 L 1356 247.62 L 1353 247.33 L 1350 246.95 L 1347 246.49 L 1344 245.94 L 1341 245.32 L 1338 244.62 L 1335 243.84 L 1332 242.99 L 1329 242.05 L 1326 241.05 L 1323 239.98 L 1320 238.84 L 1317 237.63 L 1314 236.36 L 1311 235.02 L 1308 233.63 L 1305 232.19 L 1302 230.69 L 1299 229.14 L 1296 227.54 L 1293 225.90 L 1290 224.22 L 1287 222.51 L 1284 220.76 L 1281 218.98 L 1278 217.17 L 1275 215.35 L 1272 213.50 L 1269 211.64 L 1266 209.76 L 1263 207.88 L 1260 206.00 L 1257 204.12 L 1254 202.24 L 1251 200.36 L 1248 198.50 L 1245 196.65 L 1242 194.83 L 1239 193.02 L 1236 191.24 L 1233 189.49 L 1230 187.78 L 1227 186.10 L 1224 184.46 L 1221 182.86 L 1218 181.31 L 1215 179.81 L 1212 178.37 L 1209 176.98 L 1206 175.64 L 1203 174.37 L 1200 173.16 L 1197 172.02 L 1194 170.95 L 1191 169.95 L 1188 169.01 L 1185 168.16 L 1182 167.38 L 1179 166.68 L 1176 166.06 L 1173 165.51 L 1170 165.05 L 1167 164.67 L 1164 164.38 L 1161 164.17 L 1158 164.04 L 1155 164.00 L 1152 164.04 L 1149 164.17 L 1146 164.38 L 1143 164.67 L 1140 165.05 L 1137 165.51 L 1134 166.06 L 1131 166.68 L 1128 167.38 L 1125 168.16 L 1122 169.01 L 1119 169.95 L 1116 170.95 L 1113 172.02 L 1110 173.16 L 1107 174.37 L 1104 175.64 L 1101 176.98 L 1098 178.37 L 1095 179.81 L 1092 181.31 L 1089 182.86 L 1086 184.46 L 1083 186.10 L 1080 187.78 L 1077 189.49 L 1074 191.24 L 1071 193.02 L 1068 194.83 L 1065 196.65 L 1062 198.50 L 1059 200.36 L 1056 202.24 L 1053 204.12 L 1050 206.00 L 1047 207.88 L 1044 209.76 L 1041 211.64 L 1038 213.50 L 1035 215.35 L 1032 217.17 L 1029 218.98 L 1026 220.76 L 1023 222.51 L 1020 224.22 L 1017 225.90 L 1014 227.54 L 1011 229.14 L 1008 230.69 L 1005 232.19 L 1002 233.63 L 999 235.02 L 996 236.36 L 993 237.63 L 990 238.84 L 987 239.98 L 984 241.05 L 981 242.05 L 978 242.99 L 975 243.84 L 972 244.62 L 969 245.32 L 966 245.94 L 963 246.49 L 960 246.95 L 957 247.33 L 954 247.62 L 951 247.83 L 948 247.96 L 945 248.00 L 942 247.96 L 939 247.83 L 936 247.62 L 933 247.33 L 930 246.95 L 927 246.49 L 924 245.94 L 921 245.32 L 918 244.62 L 915 243.84 L 912 242.99 L 909 242.05 L 906 241.05 L 903 239.98 L 900 238.84 L 897 237.63 L 894 236.36 L 891 235.02 L 888 233.63 L 885 232.19 L 882 230.69 L 879 229.14 L 876 227.54 L 873 225.90 L 870 224.22 L 867 222.51 L 864 220.76 L 861 218.98 L 858 217.17 L 855 215.35 L 852 213.50 L 849 211.64 L 846 209.76 L 843 207.88 L 840 206.00 L 837 204.12 L 834 202.24 L 831 200.36 L 828 198.50 L 825 196.65 L 822 194.83 L 819 193.02 L 816 191.24 L 813 189.49 L 810 187.78 L 807 186.10 L 804 184.46 L 801 182.86 L 798 181.31 L 795 179.81 L 792 178.37 L 789 176.98 L 786 175.64 L 783 174.37 L 780 173.16 L 777 172.02 L 774 170.95 L 771 169.95 L 768 169.01 L 765 168.16 L 762 167.38 L 759 166.68 L 756 166.06 L 753 165.51 L 750 165.05 L 747 164.67 L 744 164.38 L 741 164.17 L 738 164.04 L 735 164.00 L 732 164.04 L 729 164.17 L 726 164.38 L 723 164.67 L 720 165.05 L 717 165.51 L 714 166.06 L 711 166.68 L 708 167.38 L 705 168.16 L 702 169.01 L 699 169.95 L 696 170.95 L 693 172.02 L 690 173.16 L 687 174.37 L 684 175.64 L 681 176.98 L 678 178.37 L 675 179.81 L 672 181.31 L 669 182.86 L 666 184.46 L 663 186.10 L 660 187.78 L 657 189.49 L 654 191.24 L 651 193.02 L 648 194.83 L 645 196.65 L 642 198.50 L 639 200.36 L 636 202.24 L 633 204.12 L 630 206.00 L 627 207.88 L 624 209.76 L 621 211.64 L 618 213.50 L 615 215.35 L 612 217.17 L 609 218.98 L 606 220.76 L 603 222.51 L 600 224.22 L 597 225.90 L 594 227.54 L 591 229.14 L 588 230.69 L 585 232.19 L 582 233.63 L 579 235.02 L 576 236.36 L 573 237.63 L 570 238.84 L 567 239.98 L 564 241.05 L 561 242.05 L 558 242.99 L 555 243.84 L 552 244.62 L 549 245.32 L 546 245.94 L 543 246.49 L 540 246.95 L 537 247.33 L 534 247.62 L 531 247.83 L 528 247.96 L 525 248.00 L 522 247.96 L 519 247.83 L 516 247.62 L 513 247.33 L 510 246.95 L 507 246.49 L 504 245.94 L 501 245.32 L 498 244.62 L 495 243.84 L 492 242.99 L 489 242.05 L 486 241.05 L 483 239.98 L 480 238.84 L 477 237.63 L 474 236.36 L 471 235.02 L 468 233.63 L 465 232.19 L 462 230.69 L 459 229.14 L 456 227.54 L 453 225.90 L 450 224.22 L 447 222.51 L 444 220.76 L 441 218.98 L 438 217.17 L 435 215.35 L 432 213.50 L 429 211.64 L 426 209.76 L 423 207.88 L 420 206.00 L 417 204.12 L 414 202.24 L 411 200.36 L 408 198.50 L 405 196.65 L 402 194.83 L 399 193.02 L 396 191.24 L 393 189.49 L 390 187.78 L 387 186.10 L 384 184.46 L 381 182.86 L 378 181.31 L 375 179.81 L 372 178.37 L 369 176.98 L 366 175.64 L 363 174.37 L 360 173.16 L 357 172.02 L 354 170.95 L 351 169.95 L 348 169.01 L 345 168.16 L 342 167.38 L 339 166.68 L 336 166.06 L 333 165.51 L 330 165.05 L 327 164.67 L 324 164.38 L 321 164.17 L 318 164.04 L 315 164.00 L 312 164.04 L 309 164.17 L 306 164.38 L 303 164.67 L 300 165.05 L 297 165.51 L 294 166.06 L 291 166.68 L 288 167.38 L 285 168.16 L 282 169.01 L 279 169.95 L 276 170.95 L 273 172.02 L 270 173.16 L 267 174.37 L 264 175.64 L 261 176.98 L 258 178.37 L 255 179.81 L 252 181.31 L 249 182.86 L 246 184.46 L 243 186.10 L 240 187.78 L 237 189.49 L 234 191.24 L 231 193.02 L 228 194.83 L 225 196.65 L 222 198.50 L 219 200.36 L 216 202.24 L 213 204.12 L 210 206.00 L 207 207.88 L 204 209.76 L 201 211.64 L 198 213.50 L 195 215.35 L 192 217.17 L 189 218.98 L 186 220.76 L 183 222.51 L 180 224.22 L 177 225.90 L 174 227.54 L 171 229.14 L 168 230.69 L 165 232.19 L 162 233.63 L 159 235.02 L 156 236.36 L 153 237.63 L 150 238.84 L 147 239.98 L 144 241.05 L 141 242.05 L 138 242.99 L 135 243.84 L 132 244.62 L 129 245.32 L 126 245.94 L 123 246.49 L 120 246.95 L 117 247.33 L 114 247.62 L 111 247.83 L 108 247.96 L 105 248.00 L 102 247.96 L 99 247.83 L 96 247.62 L 93 247.33 L 90 246.95 L 87 246.49 L 84 245.94 L 81 245.32 L 78 244.62 L 75 243.84 L 72 242.99 L 69 242.05 L 66 241.05 L 63 239.98 L 60 238.84 L 57 237.63 L 54 236.36 L 51 235.02 L 48 233.63 L 45 232.19 L 42 230.69 L 39 229.14 L 36 227.54 L 33 225.90 L 30 224.22 L 27 222.51 L 24 220.76 L 21 218.98 L 18 217.17 L 15 215.35 L 12 213.50 L 9 211.64 L 6 209.76 L 3 207.88 L 0 206.00 Z" fill="url(#grad-ribbon)" fill-opacity="0.18" stroke="none"/>
</svg>